<svg width="36" height="36" viewBox="0 0 36 36" fill="none" xmlns="http://www.w3.org/2000/svg">
<path fill-rule="evenodd" clip-rule="evenodd" d="M19.125 6.73036C17.9999 6.73036 18.6213 6.73036 17.9999 6.73036C17.3786 6.73036 17.4999 6.10902 17.4999 6.73034L16.875 6.73036C14.7163 6.75986 12.5585 6.87427 10.4066 7.07361L9.90922 7.11968C6.32167 7.452 3.55914 10.4311 3.49809 14.0335L3.47995 15.1037C3.409 19.2904 3.74647 23.4739 4.48758 27.595C4.85502 29.6383 6.63302 31.125 8.70903 31.125H9.04061C10.8936 31.125 12.5726 30.033 13.3239 28.3391H16.9999C18.375 28.3391 16.9999 28.3391 18.7445 28.3391H22.676C23.4273 30.033 25.1063 31.125 26.9593 31.125H27.2909C29.3669 31.125 31.1449 29.6383 31.5124 27.595C32.2535 23.4739 32.5909 19.2903 32.52 15.1037L32.5018 14.0335C32.4408 10.4311 29.6783 7.452 26.0907 7.11968L25.5933 7.07361C23.4414 6.87427 21.2836 6.75986 19.125 6.73036ZM10.6142 9.31402C15.5275 8.85889 20.4724 8.85889 25.3858 9.31402L25.8832 9.36009C28.328 9.58656 30.2106 11.6167 30.2522 14.0717L30.2703 15.1419C30.3388 19.1822 30.0131 23.2196 29.2979 27.1968C29.1232 28.1682 28.2779 28.875 27.2909 28.875H26.9593C25.9961 28.875 25.1233 28.3074 24.7328 27.4269L23.1419 23.8399C21.1641 19.3807 14.8358 19.3807 12.858 23.8399L11.2671 27.4269C10.8766 28.3074 10.0038 28.875 9.04061 28.875H8.70903C7.72205 28.875 6.87674 28.1682 6.70205 27.1968C5.98683 23.2196 5.66115 19.1822 5.72963 15.1419L5.74777 14.0717C5.78937 11.6167 7.67195 9.58656 10.1168 9.36009L10.6142 9.31402Z" fill="white"/>
</svg>
