<svg width="36" height="36" viewBox="0 0 36 36" fill="none" xmlns="http://www.w3.org/2000/svg">
<path fill-rule="evenodd" clip-rule="evenodd" d="M20.3367 8.30135C19.0309 7.04831 16.9691 7.04831 15.6632 8.30135L8.72358 14.9603C8.55355 15.1235 8.43918 15.336 8.39668 15.5678C7.56548 20.1006 7.50412 24.741 8.21519 29.2942L8.38397 30.375H12.8487V21.058C12.8487 20.4367 13.3523 19.933 13.9737 19.933H22.0263C22.6476 19.933 23.1513 20.4367 23.1513 21.058V30.375H27.616L27.7848 29.2942C28.4958 24.741 28.4345 20.1006 27.6033 15.5678C27.5608 15.336 27.4464 15.1235 27.2764 14.9603L20.3367 8.30135ZM14.1054 6.67787C16.2818 4.58947 19.7181 4.58947 21.8945 6.67787L28.8342 13.3369C29.345 13.8271 29.6887 14.4656 29.8164 15.162C30.6932 19.9434 30.7579 24.8384 30.0078 29.6414L29.7367 31.3776C29.6245 32.0956 29.0061 32.625 28.2794 32.625H22.0263C21.405 32.625 20.9013 32.1213 20.9013 31.5V22.183H15.0987V31.5C15.0987 32.1213 14.595 32.625 13.9737 32.625H7.72057C6.99384 32.625 6.37541 32.0956 6.26328 31.3776L5.99213 29.6414C5.24206 24.8384 5.30678 19.9434 6.18358 15.162C6.31128 14.4656 6.6549 13.8271 7.16576 13.3369L14.1054 6.67787Z" fill="white" fill-opacity="0.6"/>
</svg>
