<svg width="36" height="36" viewBox="0 0 36 36" fill="none" xmlns="http://www.w3.org/2000/svg">
<path fill-rule="evenodd" clip-rule="evenodd" d="M18 9.375C15.3076 9.375 13.125 11.5576 13.125 14.25C13.125 16.9424 15.3076 19.125 18 19.125C20.6924 19.125 22.875 16.9424 22.875 14.25C22.875 11.5576 20.6924 9.375 18 9.375ZM15.375 14.25C15.375 12.8003 16.5503 11.625 18 11.625C19.4498 11.625 20.625 12.8003 20.625 14.25C20.625 15.6997 19.4498 16.875 18 16.875C16.5503 16.875 15.375 15.6997 15.375 14.25Z" fill="white" fill-opacity="0.6"/>
<path fill-rule="evenodd" clip-rule="evenodd" d="M18 3.375C11.9939 3.375 7.12501 8.2439 7.12501 14.25C7.12501 16.4522 7.77958 18.5015 8.90477 20.214L5.02572 26.9327C4.80513 27.3148 4.82823 27.7905 5.08482 28.1495C5.3414 28.5084 5.7841 28.6842 6.217 28.5991L10.1378 27.8283L11.4307 31.6092C11.5735 32.0267 11.9471 32.3221 12.3862 32.3649C12.8253 32.4077 13.2489 32.1898 13.4695 31.8077L17.3391 25.1052C17.5577 25.1184 17.7781 25.125 18 25.125C18.2219 25.125 18.4423 25.1184 18.6609 25.1052L22.5306 31.8077C22.7514 32.1902 23.1755 32.4081 23.6151 32.3648C24.0546 32.3215 24.4281 32.0251 24.5701 31.6069L25.8564 27.8183L29.7806 28.5986C30.2138 28.6847 30.6573 28.5094 30.9145 28.1505C31.1717 27.7915 31.1951 27.3152 30.9743 26.9327L27.0952 20.214C28.2204 18.5015 28.875 16.4522 28.875 14.25C28.875 8.2439 24.0061 3.375 18 3.375ZM9.37501 14.25C9.37501 9.48654 13.2366 5.625 18 5.625C22.7635 5.625 26.625 9.48654 26.625 14.25C26.625 19.0135 22.7635 22.875 18 22.875C13.2366 22.875 9.37501 19.0135 9.37501 14.25ZM14.9756 24.6989C13.2462 24.1992 11.694 23.2818 10.4354 22.0629L8.21205 25.9138L10.6675 25.4311C11.2196 25.3226 11.7669 25.6386 11.949 26.171L12.7587 28.5388L14.9756 24.6989ZM23.2378 28.5326L21.0244 24.6989C22.7538 24.1992 24.3061 23.2818 25.5647 22.0629L27.7844 25.9076L25.3277 25.4191C24.7741 25.309 24.2245 25.6263 24.0431 26.1608L23.2378 28.5326Z" fill="white" fill-opacity="0.6"/>
</svg>
